<svg width="100" height="100" viewBox="0 0 100 100" fill="none" xmlns="http://www.w3.org/2000/svg">
<circle cx="50" cy="50" r="50" fill="black"/>
<rect x="15" y="32" width="10" height="30" fill="#F3D535"/>
<rect x="84" y="69" width="10" height="30" transform="rotate(180 84 69)" fill="#F3D535"/>
<rect x="15" y="32" width="10" height="40" transform="rotate(-90 15 32)" fill="#F3D535"/>
<rect x="44" y="79" width="10" height="40" transform="rotate(-90 44 79)" fill="#F3D535"/>
<path d="M31.064 57.968V42.224H37.424C40.032 42.224 41.888 42.664 42.992 43.544C44.112 44.424 44.672 45.84 44.672 47.792C44.672 50.48 43.608 52.216 41.48 53L44.984 57.968H47.24V59H41.12L37.4 53.648H34.808V59H28.736V57.968H31.064ZM37.544 50.408C38.824 50.408 39.696 50.2 40.16 49.784C40.624 49.368 40.856 48.712 40.856 47.816C40.856 46.904 40.616 46.28 40.136 45.944C39.656 45.608 38.816 45.44 37.616 45.44H34.808V50.408H37.544ZM63.5255 48.44L58.9895 57.608H56.7575L52.2455 48.44V59H46.1735V57.968H48.5015V42.224H53.5655L57.8855 51.44L62.2295 42.224H67.2695V57.968H69.5975V59H63.5255V48.44Z" fill="white"/>
</svg>
