<svg xmlns="http://www.w3.org/2000/svg" width="32" height="32" fill="none"><path fill="url(#a)" d="M4 4A4 4 0 0 0 .1 7.11L16 16.828 31.9 7.11A4 4 0 0 0 28 4H4ZM0 23.6V9.396l11.606 7.092L0 23.6Zm13.522-5.94L.382 25.712A4 4 0 0 0 4 28h12.512A8.987 8.987 0 0 1 16 25a8.98 8.98 0 0 1 3.212-6.892l-.734-.45L16 19.172l-2.478-1.512ZM32 19.342V9.394l-11.606 7.092.676.416A8.964 8.964 0 0 1 25 16a8.984 8.984 0 0 1 7 3.342Z"/><path fill="url(#b)" d="M31.668 24.488c0 2.336-1.154 4.05-3.174 4.05-1.006 0-2.004-.456-2.24-1.296h-.086c-.236.832-1.086 1.286-2.03 1.286-1.54 0-2.518-1.084-2.518-2.868v-1.058c0-1.688.962-2.8 2.52-2.8 1.17 0 1.74.666 1.906 1.26h.06v-1.136h1.81v4.38c0 .544.36.84.822.84.63 0 1.278-.83 1.278-2.78v-.236c0-2.554-1.9-4.652-4.968-4.652h-.08c-3.164 0-5.28 2.134-5.28 5.448v.314c0 3.734 2.474 5.308 5.14 5.308h.09c1.014 0 1.87-.14 2.36-.36v1.462c-.438.2-1.286.35-2.474.35h-.088C20.876 32 18 29.64 18 25.292v-.428C18 20.72 20.842 18 24.97 18h.07c4.24 0 6.628 2.86 6.628 6.068v.42Zm-8.08.42v.454c0 1.172.454 1.6 1.162 1.6.62 0 1.128-.34 1.128-1.486v-.734c0-1.032-.55-1.416-1.144-1.416-.692 0-1.146.49-1.146 1.582Z"/><defs><linearGradient id="a" x1="16" x2="16" y1="4" y2="28" gradientUnits="userSpaceOnUse"><stop stop-color="#F3D535"/><stop offset="1" stop-color="#D09600"/></linearGradient><linearGradient id="b" x1="24.834" x2="24.834" y1="18" y2="32" gradientUnits="userSpaceOnUse"><stop stop-color="#F3D535"/><stop offset="1" stop-color="#D09600"/></linearGradient></defs></svg>