<svg width="32" height="32" viewBox="0 0 32 32" fill="none" xmlns="http://www.w3.org/2000/svg">
<path d="M6 4C6 2.93913 6.42143 1.92172 7.17157 1.17157C7.92172 0.421427 8.93913 0 10 0L22 0C23.0609 0 24.0783 0.421427 24.8284 1.17157C25.5786 1.92172 26 2.93913 26 4V28C26 29.0609 25.5786 30.0783 24.8284 30.8284C24.0783 31.5786 23.0609 32 22 32H10C8.93913 32 7.92172 31.5786 7.17157 30.8284C6.42143 30.0783 6 29.0609 6 28V4ZM18 26C18 25.4696 17.7893 24.9609 17.4142 24.5858C17.0391 24.2107 16.5304 24 16 24C15.4696 24 14.9609 24.2107 14.5858 24.5858C14.2107 24.9609 14 25.4696 14 26C14 26.5304 14.2107 27.0391 14.5858 27.4142C14.9609 27.7893 15.4696 28 16 28C16.5304 28 17.0391 27.7893 17.4142 27.4142C17.7893 27.0391 18 26.5304 18 26Z" fill="url(#paint0_linear_177_264)"/>
<defs>
<linearGradient id="paint0_linear_177_264" x1="16" y1="0" x2="16" y2="32" gradientUnits="userSpaceOnUse">
<stop stop-color="#F3D535"/>
<stop offset="1" stop-color="#D09600"/>
</linearGradient>
</defs>
</svg>
