<svg xmlns="http://www.w3.org/2000/svg" width="404" height="44" fill="none"><path fill="#fff" d="m23.044 35-4.86-7.02H12.82V35H6.988V9.8h10.908c2.232 0 4.164.372 5.796 1.116 1.656.744 2.928 1.8 3.816 3.168.888 1.368 1.332 2.988 1.332 4.86 0 1.872-.456 3.492-1.368 4.86-.888 1.344-2.16 2.376-3.816 3.096l5.652 8.1h-6.264Zm-.108-16.056c0-1.416-.456-2.496-1.368-3.24-.912-.768-2.244-1.152-3.996-1.152H12.82v8.784h4.752c1.752 0 3.084-.384 3.996-1.152.912-.768 1.368-1.848 1.368-3.24ZM45.665 35.432c-2.616 0-4.98-.564-7.092-1.692-2.088-1.128-3.732-2.676-4.932-4.644-1.176-1.992-1.764-4.224-1.764-6.696 0-2.472.588-4.692 1.764-6.66 1.2-1.992 2.844-3.552 4.932-4.68 2.112-1.128 4.476-1.692 7.092-1.692 2.616 0 4.968.564 7.056 1.692 2.088 1.128 3.732 2.688 4.932 4.68 1.2 1.968 1.8 4.188 1.8 6.66 0 2.472-.6 4.704-1.8 6.696-1.2 1.968-2.844 3.516-4.932 4.644-2.088 1.128-4.44 1.692-7.056 1.692Zm0-4.968c1.488 0 2.832-.336 4.032-1.008a7.363 7.363 0 0 0 2.808-2.88c.696-1.224 1.044-2.616 1.044-4.176s-.348-2.952-1.044-4.176a7.116 7.116 0 0 0-2.808-2.844c-1.2-.696-2.544-1.044-4.032-1.044s-2.832.348-4.032 1.044a7.361 7.361 0 0 0-2.844 2.844c-.672 1.224-1.008 2.616-1.008 4.176s.336 2.952 1.008 4.176a7.621 7.621 0 0 0 2.844 2.88c1.2.672 2.544 1.008 4.032 1.008ZM63.836 9.8h11.448c2.736 0 5.148.528 7.236 1.584 2.112 1.032 3.744 2.496 4.896 4.392 1.176 1.896 1.764 4.104 1.764 6.624 0 2.52-.588 4.728-1.764 6.624-1.152 1.896-2.784 3.372-4.896 4.428C80.432 34.484 78.02 35 75.284 35H63.836V9.8Zm11.16 20.412c2.52 0 4.524-.696 6.012-2.088 1.512-1.416 2.268-3.324 2.268-5.724 0-2.4-.756-4.296-2.268-5.688-1.488-1.416-3.492-2.124-6.012-2.124h-5.328v15.624h5.328ZM109.634 35l-4.86-7.02H99.41V35h-5.832V9.8h10.908c2.232 0 4.164.372 5.796 1.116 1.656.744 2.928 1.8 3.816 3.168.888 1.368 1.332 2.988 1.332 4.86 0 1.872-.456 3.492-1.368 4.86-.888 1.344-2.16 2.376-3.816 3.096l5.652 8.1h-6.264Zm-.108-16.056c0-1.416-.456-2.496-1.368-3.24-.912-.768-2.244-1.152-3.996-1.152H99.41v8.784h4.752c1.752 0 3.084-.384 3.996-1.152.912-.768 1.368-1.848 1.368-3.24ZM128.691 14.48v15.84h4.356V35h-14.581v-4.68h4.392V14.48h-4.392V9.8h14.581v4.68h-4.356ZM154.305 22.004h5.328V35h-4.392v-1.512c-1.752 1.296-4.008 1.944-6.768 1.944-2.328 0-4.464-.504-6.408-1.512s-3.492-2.472-4.644-4.392c-1.152-1.944-1.728-4.248-1.728-6.912 0-2.568.588-4.848 1.764-6.84 1.2-2.016 2.856-3.588 4.968-4.716 2.112-1.128 4.488-1.692 7.128-1.692 2.208 0 4.212.372 6.012 1.116 1.8.744 3.312 1.824 4.536 3.24l-3.744 3.456c-1.8-1.896-3.972-2.844-6.516-2.844-1.608 0-3.036.348-4.284 1.044a7.169 7.169 0 0 0-2.916 2.88c-.696 1.248-1.044 2.688-1.044 4.32 0 1.704.336 3.156 1.008 4.356.696 1.2 1.62 2.112 2.772 2.736 1.152.6 2.412.9 3.78.9 2.04 0 3.756-.576 5.148-1.728v-6.84ZM177.255 35.432c-2.616 0-4.98-.564-7.092-1.692-2.088-1.128-3.733-2.676-4.933-4.644-1.176-1.992-1.763-4.224-1.763-6.696 0-2.472.587-4.692 1.763-6.66 1.2-1.992 2.845-3.552 4.933-4.68 2.112-1.128 4.476-1.692 7.092-1.692 2.616 0 4.968.564 7.056 1.692 2.088 1.128 3.732 2.688 4.932 4.68 1.2 1.968 1.799 4.188 1.799 6.66 0 2.472-.599 4.704-1.799 6.696-1.2 1.968-2.844 3.516-4.932 4.644-2.088 1.128-4.44 1.692-7.056 1.692Zm0-4.968c1.488 0 2.831-.336 4.031-1.008a7.363 7.363 0 0 0 2.808-2.88c.696-1.224 1.045-2.616 1.045-4.176s-.349-2.952-1.045-4.176a7.116 7.116 0 0 0-2.808-2.844c-1.2-.696-2.543-1.044-4.031-1.044-1.488 0-2.832.348-4.032 1.044a7.364 7.364 0 0 0-2.845 2.844c-.672 1.224-1.008 2.616-1.008 4.176s.336 2.952 1.008 4.176a7.624 7.624 0 0 0 2.845 2.88c1.2.672 2.544 1.008 4.032 1.008ZM234.385 9.368c2.976 0 5.292.876 6.948 2.628 1.656 1.728 2.484 4.236 2.484 7.524V35h-5.832V19.7c0-1.776-.468-3.108-1.404-3.996-.912-.912-2.124-1.368-3.636-1.368-1.656 0-2.976.48-3.96 1.44-.984.936-1.476 2.364-1.476 4.284V35h-5.832V19.7c0-1.776-.432-3.108-1.296-3.996-.864-.912-2.04-1.368-3.528-1.368-1.632 0-2.94.48-3.924 1.44-.984.936-1.476 2.364-1.476 4.284V35h-5.832V9.8h5.652v3.096c.768-1.128 1.788-1.992 3.06-2.592 1.272-.624 2.736-.936 4.392-.936 1.728 0 3.24.324 4.536.972 1.296.624 2.292 1.536 2.988 2.736.864-1.2 1.992-2.112 3.384-2.736 1.416-.648 3-.972 4.752-.972ZM261.77 35.432c-2.616 0-4.98-.564-7.092-1.692-2.088-1.128-3.732-2.676-4.932-4.644-1.176-1.992-1.764-4.224-1.764-6.696 0-2.472.588-4.692 1.764-6.66 1.2-1.992 2.844-3.552 4.932-4.68 2.112-1.128 4.476-1.692 7.092-1.692 2.616 0 4.968.564 7.056 1.692 2.088 1.128 3.732 2.688 4.932 4.68 1.2 1.968 1.8 4.188 1.8 6.66 0 2.472-.6 4.704-1.8 6.696-1.2 1.968-2.844 3.516-4.932 4.644-2.088 1.128-4.44 1.692-7.056 1.692Zm0-4.968c1.488 0 2.832-.336 4.032-1.008a7.363 7.363 0 0 0 2.808-2.88c.696-1.224 1.044-2.616 1.044-4.176s-.348-2.952-1.044-4.176a7.116 7.116 0 0 0-2.808-2.844c-1.2-.696-2.544-1.044-4.032-1.044s-2.832.348-4.032 1.044a7.361 7.361 0 0 0-2.844 2.844c-.672 1.224-1.008 2.616-1.008 4.176s.336 2.952 1.008 4.176a7.621 7.621 0 0 0 2.844 2.88c1.2.672 2.544 1.008 4.032 1.008ZM295.997 35l-4.86-7.02h-5.364V35h-5.832V9.8h10.908c2.232 0 4.164.372 5.796 1.116 1.656.744 2.928 1.8 3.816 3.168.888 1.368 1.332 2.988 1.332 4.86 0 1.872-.456 3.492-1.368 4.86-.888 1.344-2.16 2.376-3.816 3.096l5.652 8.1h-6.264Zm-.108-16.056c0-1.416-.456-2.496-1.368-3.24-.912-.768-2.244-1.152-3.996-1.152h-4.752v8.784h4.752c1.752 0 3.084-.384 3.996-1.152.912-.768 1.368-1.848 1.368-3.24ZM327.006 32.84c-1.2.816-2.712 1.452-4.536 1.908-1.8.456-3.72.684-5.76.684-2.544 0-4.704-.312-6.48-.936-1.776-.648-3.12-1.536-4.032-2.664a6.153 6.153 0 0 1-1.368-3.924c0-1.344.372-2.532 1.116-3.564.744-1.032 1.764-1.8 3.06-2.304-.984-.528-1.752-1.248-2.304-2.16-.528-.912-.792-1.932-.792-3.06 0-1.368.42-2.616 1.26-3.744.84-1.128 2.112-2.028 3.816-2.7 1.704-.672 3.792-1.008 6.264-1.008 1.632 0 3.228.168 4.788.504 1.56.312 2.916.744 4.068 1.296l-1.62 4.464a16.38 16.38 0 0 0-7.02-1.548c-1.872 0-3.288.288-4.248.864-.936.552-1.404 1.308-1.404 2.268 0 .888.312 1.572.936 2.052.648.456 1.62.684 2.916.684h6.876v4.608h-7.236c-1.464 0-2.592.252-3.384.756-.792.504-1.188 1.236-1.188 2.196 0 1.008.504 1.8 1.512 2.376 1.032.552 2.604.828 4.716.828 1.488 0 2.976-.192 4.464-.576 1.488-.408 2.748-.972 3.78-1.692l1.8 4.392ZM339.065 14.48v15.84h4.357V35h-14.581v-4.68h4.392V14.48h-4.392V9.8h14.581v4.68h-4.357ZM363.884 35l-4.86-7.02h-5.364V35h-5.832V9.8h10.908c2.232 0 4.164.372 5.796 1.116 1.656.744 2.928 1.8 3.816 3.168.888 1.368 1.332 2.988 1.332 4.86 0 1.872-.456 3.492-1.368 4.86-.888 1.344-2.16 2.376-3.816 3.096l5.652 8.1h-6.264Zm-.108-16.056c0-1.416-.456-2.496-1.368-3.24-.912-.768-2.244-1.152-3.996-1.152h-4.752v8.784h4.752c1.752 0 3.084-.384 3.996-1.152.912-.768 1.368-1.848 1.368-3.24ZM385.641 9.368c2.328 0 4.355.456 6.083 1.368 1.728.912 3.073 2.256 4.033 4.032.96 1.776 1.44 3.924 1.44 6.444V35h-5.832v-6.048h-11.52V35h-5.76V21.212c0-2.52.48-4.668 1.44-6.444.96-1.776 2.303-3.12 4.031-4.032 1.728-.912 3.757-1.368 6.085-1.368Zm5.724 14.904v-3.6c0-2.088-.517-3.66-1.549-4.716-1.032-1.08-2.436-1.62-4.212-1.62-1.8 0-3.215.54-4.247 1.62-1.008 1.056-1.512 2.628-1.512 4.716v3.6h11.52Z"/><path fill="#F3D535" d="M399 5h5v30h-5V5ZM5 39H0V9h5v30ZM354 5V0h50v5h-50ZM.003 44v-5h50v5h-50Z"/></svg>